<svg id="svg1" style="display:inline" width="600.0" height="600.0" xmin="-5" xmax="5" ymin="-5" ymax="5" ox="300.0" oy="300.0">
  <g parent="self.xml_parent" self="self.xml_parent[0]" angle="0" scale_x="1" scale_y="1" transform="rotate(0, 0.0, 600.0) translate(0.0, 600.0) scale(1, 1)translate(-0.0, -600.0) translate(0.0, -0.0)">
    <rect x="0" y="0" width="600.0" height="600.0" stroke-width="0" stroke="black" fill="white"/>
    <path d=" M 300.0,0 300.0,600.0 M 360.0,0 360.0,600.0 M 420.0,0 420.0,600.0 M 480.0,0 480.0,600.0 M 540.0,0 540.0,600.0 M 600.0,0 600.0,600.0 M 300.0,0 300.0,600.0 M 240.0,0 240.0,600.0 M 180.0,0 180.0,600.0 M 120.0,0 120.0,600.0 M 60.0,0 60.0,600.0 M 0.0,0 0.0,600.0 M 0,300.0 600.0,300.0 M 0,360.0 600.0,360.0 M 0,420.0 600.0,420.0 M 0,480.0 600.0,480.0 M 0,540.0 600.0,540.0 M 0,600.0 600.0,600.0 M 0,300.0 600.0,300.0 M 0,240.0 600.0,240.0 M 0,180.0 600.0,180.0 M 0,120.0 600.0,120.0 M 0,60.0 600.0,60.0 M 0,0.0 600.0,0.0" stroke-width="0.5" stroke="grey" fill="none"/>
    <ellipse cx="300.0" cy="300.0" rx="120.0" ry="120.0" stroke-width="1" stroke-dasharray="1, 0" stroke="red" fill="red"/>
    <path d=" M 360.0,196.076951546 A 0.06,0.06 0 0,0 300.0,180.0" stroke-width="1" stroke="black" fill="red"/>
    <path d=" M 403.923048454,240.0 A 0.06,0.06 0 0,0 360.0,196.076951546" stroke-width="1" stroke="black" fill="red"/>
    <path d=" M 420.0,300.0 A 0.06,0.06 0 0,0 403.923048454,240.0" stroke-width="1" stroke="black" fill="red"/>
    <path d=" M 403.923048454,360.0 A 0.06,0.06 0 0,0 420.0,300.0" stroke-width="1" stroke="black" fill="red"/>
    <path d=" M 360.0,403.923048454 A 0.06,0.06 0 0,0 403.923048454,360.0" stroke-width="1" stroke="black" fill="red"/>
    <path d=" M 300.0,420.0 A 0.06,0.06 0 0,0 360.0,403.923048454" stroke-width="1" stroke="black" fill="red"/>
    <path d=" M 240.0,403.923048454 A 0.06,0.06 0 0,0 300.0,420.0" stroke-width="1" stroke="black" fill="red"/>
    <path d=" M 196.076951546,360.0 A 0.06,0.06 0 0,0 240.0,403.923048454" stroke-width="1" stroke="black" fill="red"/>
    <path d=" M 180.0,300.0 A 0.06,0.06 0 0,0 196.076951546,360.0" stroke-width="1" stroke="black" fill="red"/>
    <path d=" M 196.076951546,240.0 A 0.06,0.06 0 0,0 180.0,300.0" stroke-width="1" stroke="black" fill="red"/>
    <path d=" M 240.0,196.076951546 A 0.06,0.06 0 0,0 196.076951546,240.0" stroke-width="1" stroke="black" fill="red"/>
    <path d=" M 300.0,180.0 A 0.06,0.06 0 0,0 240.0,196.076951546" stroke-width="1" stroke="black" fill="red"/>
    <ellipse cx="300.0" cy="300.0" rx="96.0" ry="96.0" stroke-width="1" stroke-dasharray="1, 0" stroke="black" fill="yellow"/>
  </g>
</svg>

